<svg xmlns="http://www.w3.org/2000/svg" width="188" height="79.596" viewBox="0 0 188 79.596"><defs><style>.a{fill:#fff;}</style></defs><g transform="translate(94 39.798)"><g transform="translate(-94 -39.798)"><rect class="a" width="188" height="1.336" transform="translate(0 60.617)"/><path class="a" d="M81.624,254.063a3.3,3.3,0,1,1,0,6.6H78.951v4.249H77.837V254.063Zm-2.674,5.593h1.925c1.909,0,3.016-.477,3.016-2.283a2.1,2.1,0,0,0-2.307-2.292H78.951Z" transform="translate(-56.797 -185.559)"/><path class="a" d="M116.763,266.784v.867c0,2.26-1.265,3.865-3.493,3.865s-3.5-1.607-3.5-3.865v-.867c0-2.252,1.273-3.859,3.5-3.859S116.763,264.54,116.763,266.784Zm-5.9.064v.747c0,1.838.9,2.944,2.4,2.944s2.395-1.106,2.395-2.944v-.748c0-1.846-.9-2.952-2.395-2.952s-2.4,1.1-2.4,2.952Z" transform="translate(-80.097 -192.025)"/><path class="a" d="M143.791,263.11h1.1v1.13h.032a2.174,2.174,0,0,1,2.132-1.257,4.894,4.894,0,0,1,.517.032v1.027a4.249,4.249,0,0,0-.645-.039c-1.5,0-2.037,1-2.037,2.291v5.132h-1.1Z" transform="translate(-104.922 -192.067)"/><path class="a" d="M164.327,255.77h1.09v2.077h1.757v.939h-1.757v5.235c0,1.019.35,1.281,1.408,1.281a3.312,3.312,0,0,0,.422-.024v.9a3.385,3.385,0,0,1-.692.064c-1.854,0-2.228-.716-2.228-2.3v-5.156h-1.17v-.939h1.17Z" transform="translate(-119.054 -186.804)"/><path class="a" d="M186.207,271.515a2.473,2.473,0,0,1-2.713-2.506c0-1.433.994-2.355,2.888-2.363h2.3v-.939a1.939,1.939,0,0,0-3.819-.358H183.82c.1-1.424,1.081-2.427,2.992-2.427,1.735,0,2.968.954,2.968,2.649v5.808h-1.067v-1.113h-.032A2.692,2.692,0,0,1,186.207,271.515Zm2.474-2.912v-1.058h-2.26c-1.257,0-1.79.6-1.79,1.433a1.631,1.631,0,0,0,1.83,1.591A2.038,2.038,0,0,0,188.681,268.6Z" transform="translate(-133.893 -192.023)"/><rect class="a" width="1.098" height="11.433" transform="translate(58.423 67.924)"/><path class="a" d="M246.542,256.283h.032v-4.368h1.1v11.434H246.63v-1.337H246.6a2.744,2.744,0,0,1-2.522,1.464c-2.124,0-3.31-1.551-3.31-3.827v-.924c0-2.268,1.289-3.835,3.31-3.835A2.737,2.737,0,0,1,246.542,256.283Zm-4.678,2.506v.811c0,1.918.986,2.9,2.323,2.9,1.512,0,2.411-1.122,2.411-2.888v-.828c0-1.718-.931-2.9-2.435-2.9C242.874,255.877,241.864,256.824,241.864,258.789Z" transform="translate(-175.684 -183.991)"/><path class="a" d="M281.546,266.784v.867c0,2.26-1.265,3.865-3.493,3.865s-3.5-1.607-3.5-3.865v-.867c0-2.252,1.273-3.859,3.5-3.859S281.546,264.54,281.546,266.784Zm-5.9.064v.747c0,1.838.9,2.944,2.4,2.944s2.395-1.106,2.395-2.944v-.748c0-1.846-.9-2.952-2.395-2.952s-2.4,1.1-2.4,2.952Z" transform="translate(-200.337 -192.025)"/><path class="a" d="M326.594,256.614a2.642,2.642,0,0,0-2.833-2.395c-1.973,0-3.111,1.4-3.111,3.724v1.687c0,2.443,1.09,3.883,3.159,3.883a2.569,2.569,0,0,0,2.849-2.538v-1.2h-2.983v-1.01h4.066v2.212a3.634,3.634,0,0,1-3.931,3.557c-2.8,0-4.257-1.822-4.257-4.9v-1.687c0-2.928,1.56-4.734,4.209-4.734a3.655,3.655,0,0,1,3.931,3.406Z" transform="translate(-233.174 -184.935)"/><path class="a" d="M356.781,267.652v-.946c0-2.244,1.216-3.779,3.35-3.779,2.108,0,3.35,1.528,3.35,3.865v.692h-5.594v.2c0,1.742.867,2.888,2.339,2.888a1.954,1.954,0,0,0,2.021-1.377h1.114a2.994,2.994,0,0,1-3.166,2.323C358.062,271.519,356.781,270.007,356.781,267.652Zm5.593-1.122v-.024a2.271,2.271,0,1,0-4.487,0v.024Z" transform="translate(-260.338 -192.027)"/><path class="a" d="M390.845,262.923c1.973,0,2.888,1.177,2.888,2.427h-1.042c-.032-.644-.469-1.48-1.886-1.48-1.058,0-1.854.461-1.854,1.392,0,.971,1.027,1.2,2.085,1.424,1.536.3,2.9.676,2.9,2.315s-1.352,2.514-3.206,2.514-3.039-.954-3.039-2.331h1.081c.1.757.757,1.392,2.037,1.392,1.329,0,2.037-.622,2.037-1.456,0-.995-.9-1.2-2.172-1.472-1.568-.35-2.8-.8-2.8-2.276C387.869,263.7,389.261,262.923,390.845,262.923Z" transform="translate(-282.89 -192.024)"/><path class="a" d="M416.988,255.77h1.09v2.077h1.757v.939h-1.757v5.235c0,1.019.35,1.281,1.408,1.281a3.328,3.328,0,0,0,.422-.024v.9a3.388,3.388,0,0,1-.693.064c-1.854,0-2.228-.716-2.228-2.3v-5.156h-1.17v-.939h1.17Z" transform="translate(-303.417 -186.804)"/><path class="a" d="M443.707,266.784v.867c0,2.26-1.265,3.865-3.493,3.865s-3.5-1.607-3.5-3.865v-.867c0-2.252,1.273-3.859,3.5-3.859S443.707,264.54,443.707,266.784Zm-5.9.064v.747c0,1.838.9,2.944,2.4,2.944s2.395-1.106,2.395-2.944v-.748c0-1.846-.9-2.952-2.395-2.952s-2.4,1.1-2.4,2.952Z" transform="translate(-318.664 -192.025)"/><path class="a" d="M470.737,263.11h1.1v1.13h.032A2.175,2.175,0,0,1,474,262.983a4.889,4.889,0,0,1,.517.032v1.027a4.25,4.25,0,0,0-.644-.039c-1.5,0-2.037,1-2.037,2.291v5.132h-1.1Z" transform="translate(-343.491 -192.067)"/><path class="a" d="M501.385,261.362c.1,1.066.987,2.085,2.833,2.085,1.607,0,2.665-.811,2.665-2.077,0-1.027-.644-1.568-1.973-1.91l-1.814-.487a2.9,2.9,0,0,1-2.5-2.809c0-1.949,1.719-3.047,3.652-3.047,1.862,0,3.6.994,3.644,2.983h-1.122c-.087-1.058-.892-1.973-2.546-1.973-1.464,0-2.49.724-2.49,1.973,0,.9.541,1.487,1.671,1.782l1.774.487c1.727.469,2.849,1.209,2.849,2.919,0,2.077-1.751,3.175-3.947,3.175-2.809,0-3.787-1.751-3.827-3.1Z" transform="translate(-365.03 -184.869)"/><path class="a" d="M535.366,267.652v-.946c0-2.244,1.216-3.779,3.35-3.779,2.108,0,3.35,1.528,3.35,3.865v.692h-5.594v.2c0,1.742.867,2.888,2.339,2.888a1.954,1.954,0,0,0,2.021-1.377h1.114a2.994,2.994,0,0,1-3.167,2.323C536.646,271.519,535.366,270.007,535.366,267.652Zm5.593-1.122v-.024a2.271,2.271,0,1,0-4.487,0v.024Z" transform="translate(-390.65 -192.027)"/><path class="a" d="M569.427,262.923c1.973,0,2.888,1.177,2.888,2.427h-1.042c-.032-.644-.469-1.48-1.886-1.48-1.058,0-1.854.461-1.854,1.392,0,.971,1.027,1.2,2.085,1.424,1.536.3,2.9.676,2.9,2.315s-1.352,2.514-3.206,2.514-3.039-.954-3.039-2.331h1.081c.1.757.757,1.392,2.037,1.392,1.329,0,2.037-.622,2.037-1.456,0-.995-.9-1.2-2.172-1.472-1.568-.35-2.8-.8-2.8-2.276C566.452,263.7,567.845,262.923,569.427,262.923Z" transform="translate(-413.199 -192.024)"/><path class="a" d="M595.7,266.718c0-2.26,1.281-3.8,3.374-3.8a2.905,2.905,0,0,1,3.119,2.506h-1.1a1.971,1.971,0,0,0-1.949-1.5c-1.464,0-2.347,1.058-2.347,2.865v.859c0,1.757.923,2.865,2.371,2.865a1.846,1.846,0,0,0,1.981-1.361h1.09a2.893,2.893,0,0,1-3.159,2.363c-2.148,0-3.382-1.631-3.382-3.859Z" transform="translate(-434.672 -192.024)"/><path class="a" d="M112.565,3.731c13.1,0,19.106,9.154,19.106,19.068,0,10.1-6.19,18.764-19.334,18.764h-7.521V55.579H88.9V3.731Zm-7.825,26.36h3.495c4.406,0,7.331-2.622,7.331-7.293,0-4.786-2.925-7.293-7.331-7.293H104.74Z" transform="translate(-64.869 -2.895)"/><path class="a" d="M291.445,19.365c-.3-3.039-2.735-5.964-7.331-5.964-5.318,0-8.053,3.95-8.053,11.129V30c0,5.812,1.481,11.434,8.47,11.434,5.014,0,7.369-3.266,7.369-6.267V34.56h-6.457V24h21.385v9.724c0,10.18-6.229,20.473-22.752,20.473-17.473,0-24.158-11.434-24.158-24.12V24.341c0-13.6,8.356-23.7,24.31-23.7,15.535,0,22.6,9.648,22.6,18.726Z" transform="translate(-189.659 -0.638)"/><path class="a" d="M464.727,37.444c.076,2.431,2.622,5.052,7.6,5.052,4.862,0,6.533-1.937,6.533-4.064,0-2.659-2.583-3.571-7.255-4.406l-6.267-1.1C456.788,31.4,450.6,27.112,450.6,17.5,450.6,6.79,459.219.637,472.133.637c14.662,0,21.233,8.318,21.233,16.408H478.931c-.076-2.165-2.165-4.9-6.761-4.9-4.064,0-5.773,1.861-5.773,4.064,0,2.241,2.545,3.381,6.761,4.028l6.647,1.026c7.179,1.063,14.624,4.748,14.624,15.459,0,10.1-7.255,17.472-22.448,17.472-17.017,0-22.183-8.774-22.22-16.751Z" transform="translate(-328.185 -0.637)"/></g></g></svg>