<svg xmlns="http://www.w3.org/2000/svg" width="100" height="49.975" viewBox="0 0 100 49.975"><defs><style>.a{fill:#fff;}</style></defs><g transform="translate(50 24.987)"><path class="a" d="M79.417,36a11.933,11.933,0,0,0,.1,1.523c-1.4-2.346-4.49-3.538-8.893-4.447-5.608-1.139-6.383-1.636-6.271-2.87.107-1.176,1.991-2.26,4.8-2.26A15.8,15.8,0,0,1,75.5,29.375V23.711a22.956,22.956,0,0,0-6.756-1.055c-7.077,0-11.826,3.391-12.2,8.047,0,.03,0,.057-.005.087-1.709-4.588-5.7-8.028-12.578-8.028-8.272,0-13.925,6.049-13.925,13.384,0,.186,0,.37.011.553-1.556-3.376-5.613-4.931-11.091-6.126-6.469-1.389-7.39-2.025-7.39-3.5,0-1.415,1.654-2.623,4.23-2.569a10.622,10.622,0,0,1,3.748.719h0l0,0,0,0,1.107.486C51.265-2.61,90.163,5.17,100,9.955,100,9.955,86.772,0,69.3,0,47.566,0,23.969,20.234,24.675,19.534a25.71,25.71,0,0,0-8.856-1.495c-7.694,0-13.069,3.849-13.069,9.638,0,4.44,2.323,6.46,6.386,7.842l.022.007-.1-.031A84.166,84.166,0,0,0,0,44.3a26.525,26.525,0,0,0,3.095,2.049,29.309,29.309,0,0,0,13.959,3.621c8.215,0,13.4-3.537,13.674-9.33,1.737,5.275,6.6,8.7,13.168,8.7a23.162,23.162,0,0,0,6.074-.785V42.936a14.64,14.64,0,0,1-5.605.8,6.843,6.843,0,0,1-6.7-5.237h19.76c.051-.661.1-1.084.1-1.792v-.1a18.507,18.507,0,0,0-.114-2.065c1.5,2.072,4.8,2.915,9.313,3.83,5.5,1.117,5.808,1.958,5.808,3.25,0,1.138-1.466,2.446-4.716,2.339a23.588,23.588,0,0,1-10.269-2.812v6.5A27.141,27.141,0,0,0,67.8,49.942c7.444,0,12.552-4.36,12.552-9.071,0-.1,0-.206-.007-.308a13.937,13.937,0,0,0,6.848,6.86,20.281,20.281,0,0,0,8.648,1.892,24.455,24.455,0,0,0,4.095-.3v-5.5a12.4,12.4,0,0,1-1.968.156c-5.508,0-9.977-3.466-9.977-7.74s4.469-7.74,9.977-7.74a12.777,12.777,0,0,1,1.965.152l0-5.409a28.168,28.168,0,0,0-3.823-.242C86.6,22.7,79.417,28.39,79.417,36ZM17.209,43.175a17.765,17.765,0,0,1-9.771-3.127c1.187-1.6,2.346-3.1,3.174-4.059-.038-.015,2.718.681,4.441,1.05C21.4,38.4,21.93,39.546,21.93,40.8,21.93,42.288,20.164,43.175,17.209,43.175Zm20.456-9.15a6.212,6.212,0,0,1,6.39-5.374,5.942,5.942,0,0,1,6.225,5.374Z" transform="translate(-50 -24.987)"/></g></svg>